<?xml version="1.0" encoding="UTF-8" standalone="no"?>
<!-- Created with Inkscape (http://www.inkscape.org/) -->

<svg
    xmlns:dc="http://purl.org/dc/elements/1.1/"
    xmlns:cc="http://creativecommons.org/ns#"
    xmlns:rdf="http://www.w3.org/1999/02/22-rdf-syntax-ns#"
    xmlns:svg="http://www.w3.org/2000/svg"
    xmlns="http://www.w3.org/2000/svg"
    xmlns:xlink="http://www.w3.org/1999/xlink"
    width="256px"
    height="256px"
    viewBox="0 0 256 256"
    version="1.1"
    id="SimpleDataEditTest-TYPO3-Extension-Icon">
    <metadata>
        <rdf:RDF>
            <cc:Work
                rdf:about="">
                <dc:author>Dr. Dieter Porth</dc:author>
                <dc:copyright>Dr. Dieter Porth - 2021</dc:copyright>
                <dc:format>image/svg+xml</dc:format>
                <dc:type
                    rdf:resource="http://www.mobger.de"/>
                <dc:title>Icon for test-datas in TYPO3-Extension simpledataedittest related to TYPO3-extension simpledateedit</dc:title>
            </cc:Work>
        </rdf:RDF>
    </metadata>
    <defs>
        <path id="linePath" d="M 35,222 C 65,120 130,65 250,45" style="opacity:0.1;stroke:transparent;stroke-width:1; "/>
    </defs>
    <g>
        <path
            style="fill:#ccffee;stroke-width:5; stroke:#fdfdfd"
            d="M 5.0,128.5 V 6 H 127.5 250.0 V 128.5 251 H 127.5 5.0 Z" />
        <rect x="70" y="86" width="116" height="75" style="fill:#ccccff;stroke-width:0;"/>
        <line x1="90" x2="160" y1="105" y2="105" style="stroke-width:10; stroke:black;" />
        <line x1="80" x2="170" y1="120" y2="120" style="stroke-width:5; stroke:black;" />
        <line x1="80" x2="170" y1="130" y2="130" style="stroke-width:5; stroke:black;" />
        <line x1="80" x2="170" y1="140" y2="140" style="stroke-width:5; stroke:black;" />
        <line x1="80" x2="110" y1="150" y2="150" style="stroke-width:5; stroke:black;" />
        <path
            style="fill:#c83139;stroke-width:0"
            d="m 118.9,233.0 c -0.6,-0.1 -3.3,-0.5 -5.9,-0.9 -5.7,-0.9 -13.8,-3.4 -17.6,-5.5 -8.0,-4.5 -12.9,-11.5 -12.0,-17.2 0.4,-2.9 2.3,-6.3 5.0,-9.2 1.2,-1.3 2.3,-2.6 2.3,-2.7 0,-0.1 -7.9,-0.3 -17.5,-0.4 -16.8,-0.1 -17.6,-0.1 -19.8,-1.1 -3.3,-1.5 -6.2,-4.5 -7.8,-7.9 l -1.3,-2.9 V 130.8 77.0 l 1.1,-2.8 c 1.4,-3.6 4.8,-7.0 8.4,-8.3 2.6,-0.9 3.1,-0.9 54.1,-0.9 h 51.4 l 1.7,-1.7 c 0.9,-0.9 8.5,-9.0 16.9,-17.8 9.9,-10.5 15.7,-16.3 16.9,-16.9 2.6,-1.2 6.2,-1.4 8.2,-0.3 3.1,1.6 4.4,7.0 2.5,10.7 -0.8,1.6 -5.9,8.0 -15.1,18.7 -3.1,3.6 -5.5,6.7 -5.3,6.9 0.1,0.1 3.9,0.4 8.2,0.5 7.0,0.2 8.2,0.3 10.0,1.3 3.2,1.7 5.5,4.1 7.0,7.3 l 1.3,2.9 v 54.3 54.3 l -1.2,2.6 c -1.5,3.3 -4.1,5.9 -7.5,7.5 l -2.6,1.2 -17.5,0.1 c -9.6,0.0 -17.5,0.2 -17.5,0.4 0,0.1 1.1,1.5 2.5,2.9 3.7,3.8 4.8,6.2 4.8,10.3 0.0,4.3 -1.2,7.0 -5.2,11.0 -4.9,4.8 -12.3,8.1 -23.0,10.3 -3.9,0.7 -7.2,1.0 -14.6,1.1 -5.2,0.0 -10.1,0.0 -10.7,-0.0 z m 20.5,-9.3 c 13.1,-1.7 24.4,-7.6 24.4,-12.7 -0.0,-3.7 -3.4,-6.7 -10.7,-9.7 -5.0,-2.0 -5.2,-1.9 -5.3,2.5 l -0.1,3.7 H 143.3 c -4.9,0 -4.6,0.3 -4.8,-5.9 l -0.1,-3.8 -2.8,-0.3 c -4.0,-0.5 -17.3,-0.0 -18.2,0.6 -0.5,0.4 -0.6,1.7 -0.6,5.0 v 4.4 h -4.2 c -4.8,0 -4.6,0.2 -4.9,-4.7 -0.1,-2.5 -0.1,-2.6 -1.3,-2.4 -2.1,0.2 -9.9,4.3 -11.6,6.0 -4.1,4.1 -2.2,8.5 5.1,12.2 10.2,5.2 25.1,7.1 40.0,5.1 z m 60.9,-36.8 c 0.6,-0.5 1.6,-1.6 2.0,-2.5 0.7,-1.4 0.8,-5.1 0.8,-53.6 V 78.4 l -1.1,-1.8 c -1.8,-2.9 -2.9,-3.1 -14.6,-3.1 h -10.3 l -2.1,1.9 c -1.1,1.0 -2.1,2.2 -2.1,2.6 0,0.7 0.5,0.7 12.2,0.7 3.9,-0.0 7.5,0.0 8.0,0.2 0.7,0.2 0.8,2.8 0.8,44.9 v 44.7 l -3.7,0.0 c -25.6,0.1 -127.5,-0.0 -127.8,-0.2 -0.7,-0.4 -0.6,-88.5 0.1,-89.1 0.3,-0.2 19.3,-0.4 42.1,-0.4 l 41.5,-0.0 2.1,-2.1 c 1.5,-1.5 2.0,-2.3 1.6,-2.6 -0.3,-0.3 -15.3,-0.4 -46.9,-0.3 l -46.4,0.1 -1.2,1.1 c -2.7,2.5 -2.6,-0.6 -2.6,56.0 0,52.0 0.0,52.2 0.9,53.8 2.0,3.3 -4.3,3.0 74.1,3.0 h 71.1 z M 185.0,123.9 V 88.3 H 174.4 163.9 l -7.7,7.8 c -8.6,8.8 -10.8,10.3 -15.1,10.3 -4.3,0 -7.2,-1.9 -8.0,-5.2 -0.5,-2.3 0.6,-6.4 2.6,-9.4 1.0,-1.5 1.8,-2.9 1.8,-3.1 0,-0.1 -14.9,-0.2 -33.1,-0.1 l -33.1,0.1 -0.1,34.9 c -0.0,19.2 -0.0,35.2 0.1,35.5 0.1,0.4 12.0,0.5 56.9,0.5 h 56.7 z m -82.2,6.7 c -1.2,-1.4 -0.4,-2.7 2.8,-4.8 6.6,-4.0 7.5,-5.6 7.5,-13.1 0,-4.9 0.0,-5.3 1.3,-7.2 1.6,-2.3 4.7,-4.6 7.0,-5.0 4.1,-0.7 8.4,0.9 12.9,5.3 5.0,4.9 6.5,9.8 4.4,14.4 -2.0,4.4 -7.8,8.4 -14.6,10.0 -2.1,0.4 -6.6,0.8 -12.2,1.0 -7.6,0.2 -8.9,0.1 -9.4,-0.5 z m 21.2,-5.2 c 3.9,-1.0 6.6,-2.4 9.0,-4.7 2.0,-1.9 2.2,-2.3 2.2,-4.5 0,-3.0 -1.8,-6.0 -5.3,-8.6 -4.4,-3.3 -7.8,-3.5 -10.7,-0.5 -1.3,1.4 -1.4,1.5 -1.4,7.1 -0.0,4.8 -0.2,6.0 -1.1,7.8 -0.5,1.1 -1.4,2.5 -1.9,2.9 -0.4,0.4 -0.8,1.0 -0.8,1.2 0,0.6 7.0,0.0 10.2,-0.7 z" />
        <path
            style="fill:#5d5e5d;stroke-width:0"
            d="m 118.9,233.0 c -0.6,-0.1 -3.3,-0.5 -5.9,-0.9 -5.7,-0.9 -13.8,-3.4 -17.6,-5.5 -8.0,-4.5 -12.9,-11.5 -12.0,-17.2 0.4,-2.9 2.3,-6.3 5.0,-9.2 1.2,-1.3 2.3,-2.6 2.3,-2.7 0,-0.1 -7.9,-0.3 -17.5,-0.4 -16.8,-0.1 -17.6,-0.1 -19.8,-1.1 -3.3,-1.5 -6.2,-4.5 -7.8,-7.9 l -1.3,-2.9 V 130.8 77.0 l 1.1,-2.8 c 1.4,-3.6 4.8,-7.0 8.4,-8.3 2.6,-0.9 3.1,-0.9 54.1,-0.9 h 51.4 l 1.7,-1.7 c 0.9,-0.9 8.5,-9.0 16.9,-17.8 9.9,-10.5 15.7,-16.3 16.9,-16.9 2.6,-1.2 6.2,-1.4 8.2,-0.3 3.1,1.6 4.4,7.0 2.5,10.7 -0.8,1.6 -5.9,8.0 -15.1,18.7 -3.1,3.6 -5.5,6.7 -5.3,6.9 0.1,0.1 3.9,0.4 8.2,0.5 7.0,0.2 8.2,0.3 10.0,1.3 3.2,1.7 5.5,4.1 7.0,7.3 l 1.3,2.9 v 54.3 54.3 l -1.2,2.6 c -1.5,3.3 -4.1,5.9 -7.5,7.5 l -2.6,1.2 -17.5,0.1 c -9.6,0.0 -17.5,0.2 -17.5,0.4 0,0.1 1.1,1.5 2.5,2.9 3.7,3.8 4.8,6.2 4.8,10.3 0.0,4.3 -1.2,7.0 -5.2,11.0 -4.9,4.8 -12.3,8.1 -23.0,10.3 -3.9,0.7 -7.2,1.0 -14.6,1.1 -5.2,0.0 -10.1,0.0 -10.7,-0.0 z m 20.5,-9.3 c 13.1,-1.7 24.4,-7.6 24.4,-12.7 -0.0,-3.7 -3.4,-6.7 -10.7,-9.7 -5.0,-2.0 -5.2,-1.9 -5.3,2.5 l -0.1,3.7 H 143.3 c -4.9,0 -4.6,0.3 -4.8,-5.9 l -0.1,-3.8 -2.8,-0.3 c -4.0,-0.5 -17.3,-0.0 -18.2,0.6 -0.5,0.4 -0.6,1.7 -0.6,5.0 v 4.4 h -4.2 c -4.8,0 -4.6,0.2 -4.9,-4.7 -0.1,-2.5 -0.1,-2.6 -1.3,-2.4 -2.1,0.2 -9.9,4.3 -11.6,6.0 -4.1,4.1 -2.2,8.5 5.1,12.2 10.2,5.2 25.1,7.1 40.0,5.1 z m 60.9,-36.8 c 0.6,-0.5 1.6,-1.6 2.0,-2.5 0.7,-1.4 0.8,-5.1 0.8,-53.6 V 78.4 l -1.1,-1.8 c -1.8,-2.9 -2.9,-3.1 -14.6,-3.1 h -10.3 l -2.1,1.9 c -1.1,1.0 -2.1,2.2 -2.1,2.6 0,0.7 0.5,0.7 12.2,0.7 3.9,-0.0 7.5,0.0 8.0,0.2 0.7,0.2 0.8,2.8 0.8,44.9 v 44.7 l -3.7,0.0 c -25.6,0.1 -127.5,-0.0 -127.8,-0.2 -0.7,-0.4 -0.6,-88.5 0.1,-89.1 0.3,-0.2 19.3,-0.4 42.1,-0.4 l 41.5,-0.0 2.1,-2.1 c 1.5,-1.5 2.0,-2.3 1.6,-2.6 -0.3,-0.3 -15.3,-0.4 -46.9,-0.3 l -46.4,0.1 -1.2,1.1 c -2.7,2.5 -2.6,-0.6 -2.6,56.0 0,52.0 0.0,52.2 0.9,53.8 2.0,3.3 -4.3,3.0 74.1,3.0 h 71.1 z M 185.0,123.9 V 88.3 H 174.4 163.9 l -7.7,7.8 c -8.6,8.8 -10.8,10.3 -15.1,10.3 -4.3,0 -7.2,-1.9 -8.0,-5.2 -0.5,-2.3 0.6,-6.4 2.6,-9.4 1.0,-1.5 1.8,-2.9 1.8,-3.1 0,-0.1 -14.9,-0.2 -33.1,-0.1 l -33.1,0.1 -0.1,34.9 c -0.0,19.2 -0.0,35.2 0.1,35.5 0.1,0.4 12.0,0.5 56.9,0.5 h 56.7 z m -82.2,6.7 c -1.2,-1.4 -0.4,-2.7 2.8,-4.8 6.6,-4.0 7.5,-5.6 7.5,-13.1 0,-4.9 0.0,-5.3 1.3,-7.2 1.6,-2.3 4.7,-4.6 7.0,-5.0 4.1,-0.7 8.4,0.9 12.9,5.3 5.0,4.9 6.5,9.8 4.4,14.4 -2.0,4.4 -7.8,8.4 -14.6,10.0 -2.1,0.4 -6.6,0.8 -12.2,1.0 -7.6,0.2 -8.9,0.1 -9.4,-0.5 z m 21.2,-5.2 c 3.9,-1.0 6.6,-2.4 9.0,-4.7 2.0,-1.9 2.2,-2.3 2.2,-4.5 0,-3.0 -1.8,-6.0 -5.3,-8.6 -4.4,-3.3 -7.8,-3.5 -10.7,-0.5 -1.3,1.4 -1.4,1.5 -1.4,7.1 -0.0,4.8 -0.2,6.0 -1.1,7.8 -0.5,1.1 -1.4,2.5 -1.9,2.9 -0.4,0.4 -0.8,1.0 -0.8,1.2 0,0.6 7.0,0.0 10.2,-0.7 z m 20.0,-24.1 c 3.8,-1.7 26.1,-26.4 52.4,-57.9 5.1,-6.2 5.6,-7.0 5.6,-9.0 0,-2.7 -2.9,-3.9 -5.3,-2.0 -2.6,2.0 -22.3,22.7 -39.2,41.2 -17.1,18.6 -20.0,22.4 -20.0,25.8 -0.0,1.3 0.2,1.8 1.0,2.2 1.5,0.7 3.2,0.6 5.3,-0.3 z" />
        <text font-family="Verdana" font-size="42.5" font-weight="bold" text-anchor="middle" style="stroke:darkred;stroke-width:2.5;fill:red;">
            <textPath xlink:href="#linePath" startOffset="50%" >
                Test Test
            </textPath>
        </text>

    </g>
</svg>
