<?xml version="1.0" encoding="UTF-8" standalone="no"?>
<!-- Created with Inkscape (http://www.inkscape.org/) -->

<svg
   xmlns:dc="http://purl.org/dc/elements/1.1/"
   xmlns:cc="http://creativecommons.org/ns#"
   xmlns:rdf="http://www.w3.org/1999/02/22-rdf-syntax-ns#"
   xmlns:svg="http://www.w3.org/2000/svg"
   xmlns="http://www.w3.org/2000/svg"
   xmlns:xlink="http://www.w3.org/1999/xlink"
   width="256px"
   height="256px"
   viewBox="0 0 256 256"
   version="1.1"
   id="factorize">
  <metadata>
      <rdf:RDF>
          <cc:Work
              rdf:about="">
              <dc:author>Dr. Dieter Porth</dc:author>
              <dc:copyright>Dr. Dieter Porth - 2021</dc:copyright>
              <dc:format>image/svg+xml</dc:format>
              <dc:type
                  rdf:resource="http://www.mobger.de"/>
              <dc:title>Icon für factorize-plugin in TYPO3-Extension simpledataedittest</dc:title>
          </cc:Work>
      </rdf:RDF>
  </metadata>
  <g>
      <rect x="-5" y="-5" width="266" height="266" style="fill:#00ff99; opacity:0.1;"/>
    <path
       style="fill:gold"
       d="m 166.2,169.4 c -1.5,-0.0 -10.1,-2.4 -19.2,-5.3 -11.4,-3.6 -16.5,-5.7 -16.8,-6.8 -0.1,-1.0 1.4,-2.5 4.6,-4.3 4.9,-2.7 4.9,-2.7 3.0,-5.5 -1.0,-1.5 -5.5,-5.4 -9.9,-8.7 -4.3,-3.3 -11.2,-7.5 -15.2,-9.4 C 108.7,127.1 102.1,124.7 98,123.6 93.8,122.5 88.1,121.3 85.2,120.9 81.9,120.5 80,119.8 80,119 c 0,-0.8 1.9,-1.5 5.2,-1.9 2.8,-0.3 8.6,-1.5 12.7,-2.6 4.1,-1.0 10.7,-3.5 14.7,-5.4 3.9,-1.9 10.8,-6.1 15.2,-9.4 4.3,-3.3 8.8,-7.2 9.9,-8.7 1.9,-2.7 1.9,-2.7 -3.0,-5.5 -3.2,-1.8 -4.8,-3.3 -4.6,-4.3 0.2,-1.1 5.4,-3.2 17.2,-6.9 C 156.7,70.8 165.4,68.5 166.7,68.5 169,68.5 169,68.5 169,85.5 c 0,15.5 -0.1,16.9 -1.7,16.9 -0.9,-0.0 -3.7,-1.1 -6.0,-2.4 -4.3,-2.4 -4.3,-2.4 -10.5,1.8 -3.3,2.4 -9.5,6.0 -13.6,8.1 -4.1,2.0 -10.6,4.8 -14.4,6.1 -3.8,1.2 -8.7,2.4 -11,2.4 -3.7,0.1 -3.6,0.1 1.4,0.9 3.0,0.4 7.9,1.6 11,2.7 3.0,1.0 8.8,3.6 13,5.7 4.1,2.0 10.2,5.7 13.6,8.1 6.1,4.3 6.1,4.3 10.5,1.8 2.3,-1.3 5.1,-2.4 6.0,-2.4 1.5,-0.0 1.7,1.4 1.7,16.9 0,17 0,17 -2.7,16.9 z"
       id="refactoring-factorize"
    />
    <text
       xml:space="preserve"
       style="font-style:normal;font-weight:normal;font-size:85.3px;line-height:1.2;font-family:sans-serif;letter-spacing:0px;word-spacing:0px;fill:green;fill-opacity:1;stroke:none;"
       x="183"
       y="62.5"><tspan
         id="factor-one"
         x="183"
         y="62.5">a</tspan></text>
    <text
       xml:space="preserve"
       style="font-style:normal;font-weight:normal;font-size:85.3px;line-height:1.2;font-family:sans-serif;letter-spacing:0px;word-spacing:0px;fill:green;fill-opacity:1;stroke:none"
       x="182"
       y="226.5"><tspan
         id="factor-two"
         x="182"
         y="226.5">b</tspan></text>
    <text
       xml:space="preserve"
       style="font-style:normal;font-weight:normal;font-size:85.3px;line-height:1.2;font-family:sans-serif;letter-spacing:0px;word-spacing:0px;fill:green;fill-opacity:1;stroke:none"
       x="182"
       y="164"><tspan
         id="mul"
         x="182"
         y="164">*</tspan></text>
    <text
       xml:space="preserve"
       style="font-style:normal;font-weight:normal;font-size:192px;line-height:1.2;font-family:sans-serif;letter-spacing:0px;word-spacing:0px;fill:blue;fill-opacity:1;stroke:none"
       x="0"
       y="156"><tspan
         id="product"
         x="0"
         y="156"
         style="font-size:133.3px">P</tspan></text>
  </g>
</svg>
